<mxfile host="app.diagrams.net" modified="2024-05-03T21:36:55.061Z" agent="Mozilla/5.0 (Windows NT 10.0; Win64; x64; rv:125.0) Gecko/20100101 Firefox/125.0" etag="mAGXYBdGQgNJgp7XqxMx" version="24.3.0" type="device">
  <diagram name="Stránka-1" id="7cyxLV52WM7m2embr-cK">
    <mxGraphModel dx="2059" dy="2213" grid="1" gridSize="10" guides="1" tooltips="1" connect="1" arrows="1" fold="1" page="1" pageScale="1" pageWidth="827" pageHeight="1169" math="0" shadow="0">
      <root>
        <mxCell id="0" />
        <mxCell id="1" parent="0" />
        <mxCell id="tgN6m3i9DT7jNhMSGEQ1-40" value="" style="rounded=1;whiteSpace=wrap;html=1;fillColor=#ffe6cc;strokeColor=#d79b00;strokeWidth=3;perimeterSpacing=0;fontFamily=Ubuntu;fontSource=https%3A%2F%2Ffonts.googleapis.com%2Fcss%3Ffamily%3DUbuntu;" parent="1" vertex="1">
          <mxGeometry width="640" height="450" as="geometry" />
        </mxCell>
        <mxCell id="tgN6m3i9DT7jNhMSGEQ1-5" value="AMTP server" style="text;html=1;align=center;verticalAlign=middle;whiteSpace=wrap;rounded=0;fontSize=32;fontStyle=1;fontFamily=Ubuntu;fontSource=https%3A%2F%2Ffonts.googleapis.com%2Fcss%3Ffamily%3DUbuntu;" parent="1" vertex="1">
          <mxGeometry y="20" width="640" height="30" as="geometry" />
        </mxCell>
        <mxCell id="tgN6m3i9DT7jNhMSGEQ1-15" value="&lt;font color=&quot;#ff0000&quot; size=&quot;1&quot;&gt;&lt;b style=&quot;font-size: 23px;&quot;&gt;Jádro&lt;/b&gt;&lt;/font&gt;" style="rounded=1;whiteSpace=wrap;html=1;fillColor=#d5e8d4;strokeColor=#82b366;strokeWidth=3;fontFamily=Ubuntu;fontSource=https%3A%2F%2Ffonts.googleapis.com%2Fcss%3Ffamily%3DUbuntu;" parent="1" vertex="1">
          <mxGeometry x="50" y="210" width="540" height="190" as="geometry" />
        </mxCell>
        <mxCell id="tgN6m3i9DT7jNhMSGEQ1-20" value="" style="endArrow=classic;startArrow=classic;html=1;rounded=0;exitX=0.5;exitY=0;exitDx=0;exitDy=0;fontFamily=Ubuntu;fontSource=https%3A%2F%2Ffonts.googleapis.com%2Fcss%3Ffamily%3DUbuntu;horizontal=1;" parent="1" source="tgN6m3i9DT7jNhMSGEQ1-52" edge="1">
          <mxGeometry width="50" height="50" relative="1" as="geometry">
            <mxPoint x="539.6600000000001" y="210" as="sourcePoint" />
            <mxPoint x="539.6600000000001" y="110" as="targetPoint" />
          </mxGeometry>
        </mxCell>
        <mxCell id="tgN6m3i9DT7jNhMSGEQ1-27" value="Obsluha modulů" style="rounded=1;whiteSpace=wrap;html=1;fontSize=23;fontStyle=1;fillColor=none;strokeColor=none;strokeWidth=3;fontFamily=Ubuntu;fontSource=https%3A%2F%2Ffonts.googleapis.com%2Fcss%3Ffamily%3DUbuntu;" parent="1" vertex="1">
          <mxGeometry x="50" y="210" width="540" height="60" as="geometry" />
        </mxCell>
        <mxCell id="tgN6m3i9DT7jNhMSGEQ1-28" value="Obsluha WebTransport spojení" style="rounded=1;whiteSpace=wrap;html=1;fontSize=23;fontStyle=1;fillColor=none;strokeColor=none;strokeWidth=3;fontFamily=Ubuntu;fontSource=https%3A%2F%2Ffonts.googleapis.com%2Fcss%3Ffamily%3DUbuntu;" parent="1" vertex="1">
          <mxGeometry x="50" y="340" width="540" height="60" as="geometry" />
        </mxCell>
        <mxCell id="tgN6m3i9DT7jNhMSGEQ1-42" value="" style="endArrow=none;html=1;rounded=0;exitX=0;exitY=0;exitDx=0;exitDy=0;strokeColor=#82B366;strokeWidth=3;entryX=1;entryY=0;entryDx=0;entryDy=0;fontFamily=Ubuntu;fontSource=https%3A%2F%2Ffonts.googleapis.com%2Fcss%3Ffamily%3DUbuntu;" parent="1" source="tgN6m3i9DT7jNhMSGEQ1-28" target="tgN6m3i9DT7jNhMSGEQ1-28" edge="1">
          <mxGeometry width="50" height="50" relative="1" as="geometry">
            <mxPoint x="306" y="400" as="sourcePoint" />
            <mxPoint x="726" y="380" as="targetPoint" />
          </mxGeometry>
        </mxCell>
        <mxCell id="tgN6m3i9DT7jNhMSGEQ1-43" value="" style="endArrow=none;html=1;rounded=0;strokeColor=#82B366;strokeWidth=3;exitX=0;exitY=1;exitDx=0;exitDy=0;entryX=1;entryY=1;entryDx=0;entryDy=0;fontFamily=Ubuntu;fontSource=https%3A%2F%2Ffonts.googleapis.com%2Fcss%3Ffamily%3DUbuntu;" parent="1" source="tgN6m3i9DT7jNhMSGEQ1-27" target="tgN6m3i9DT7jNhMSGEQ1-27" edge="1">
          <mxGeometry width="50" height="50" relative="1" as="geometry">
            <mxPoint x="306" y="400" as="sourcePoint" />
            <mxPoint x="706" y="430" as="targetPoint" />
          </mxGeometry>
        </mxCell>
        <mxCell id="tgN6m3i9DT7jNhMSGEQ1-46" value="&lt;div style=&quot;font-size: 20px;&quot;&gt;AMTP&lt;/div&gt;&lt;div style=&quot;font-size: 20px;&quot;&gt;klient 2&lt;/div&gt;" style="rounded=1;whiteSpace=wrap;html=1;fontStyle=1;fontSize=20;fillColor=#f8cecc;strokeColor=#b85450;strokeWidth=3;fontFamily=Ubuntu;fontSource=https%3A%2F%2Ffonts.googleapis.com%2Fcss%3Ffamily%3DUbuntu;" parent="1" vertex="1">
          <mxGeometry x="270" y="530" width="100" height="70" as="geometry" />
        </mxCell>
        <mxCell id="tgN6m3i9DT7jNhMSGEQ1-47" value="&lt;div style=&quot;font-size: 20px;&quot;&gt;AMTP&lt;/div&gt;klient 3" style="rounded=1;whiteSpace=wrap;html=1;fontStyle=1;fontSize=20;fillColor=#f8cecc;strokeColor=#b85450;strokeWidth=3;fontFamily=Ubuntu;fontSource=https%3A%2F%2Ffonts.googleapis.com%2Fcss%3Ffamily%3DUbuntu;" parent="1" vertex="1">
          <mxGeometry x="380" y="530" width="100" height="70" as="geometry" />
        </mxCell>
        <mxCell id="tgN6m3i9DT7jNhMSGEQ1-50" value="&lt;div style=&quot;font-size: 20px;&quot;&gt;&lt;font style=&quot;font-size: 20px;&quot;&gt;AMTP&lt;br style=&quot;font-size: 20px;&quot;&gt;&lt;/font&gt;&lt;/div&gt;&lt;div style=&quot;font-size: 20px;&quot;&gt;&lt;font style=&quot;font-size: 20px;&quot;&gt;klient 1&lt;br style=&quot;font-size: 20px;&quot;&gt;&lt;/font&gt;&lt;/div&gt;" style="rounded=1;whiteSpace=wrap;html=1;fontStyle=1;fontSize=20;fillColor=#f8cecc;strokeColor=#b85450;strokeWidth=3;fontFamily=Ubuntu;fontSource=https%3A%2F%2Ffonts.googleapis.com%2Fcss%3Ffamily%3DUbuntu;" parent="1" vertex="1">
          <mxGeometry x="160" y="530" width="100" height="70" as="geometry" />
        </mxCell>
        <mxCell id="tgN6m3i9DT7jNhMSGEQ1-61" value="" style="endArrow=classic;startArrow=classic;html=1;rounded=0;exitX=0.5;exitY=0;exitDx=0;exitDy=0;fontFamily=Ubuntu;fontSource=https%3A%2F%2Ffonts.googleapis.com%2Fcss%3Ffamily%3DUbuntu;horizontal=1;" parent="1" source="tgN6m3i9DT7jNhMSGEQ1-7" edge="1">
          <mxGeometry width="50" height="50" relative="1" as="geometry">
            <mxPoint x="209.66000000000003" y="210" as="sourcePoint" />
            <mxPoint x="209.66000000000003" y="110" as="targetPoint" />
          </mxGeometry>
        </mxCell>
        <mxCell id="tgN6m3i9DT7jNhMSGEQ1-63" value="" style="endArrow=classic;startArrow=classic;html=1;rounded=0;exitX=0.5;exitY=0;exitDx=0;exitDy=0;fontFamily=Ubuntu;fontSource=https%3A%2F%2Ffonts.googleapis.com%2Fcss%3Ffamily%3DUbuntu;horizontal=1;" parent="1" edge="1">
          <mxGeometry width="50" height="50" relative="1" as="geometry">
            <mxPoint x="320" y="530" as="sourcePoint" />
            <mxPoint x="320" y="400" as="targetPoint" />
          </mxGeometry>
        </mxCell>
        <mxCell id="tgN6m3i9DT7jNhMSGEQ1-64" value="&lt;div style=&quot;font-size: 12px;&quot;&gt;WebTransport&lt;/div&gt;&lt;div style=&quot;font-size: 12px;&quot;&gt;spojení&lt;br&gt;&lt;/div&gt;" style="edgeLabel;html=1;align=center;verticalAlign=middle;resizable=0;points=[];labelBackgroundColor=none;fontStyle=1;horizontal=0;fontFamily=Ubuntu;fontSource=https%3A%2F%2Ffonts.googleapis.com%2Fcss%3Ffamily%3DUbuntu;fontSize=12;" parent="tgN6m3i9DT7jNhMSGEQ1-63" vertex="1" connectable="0">
          <mxGeometry x="-0.1949" y="-2" relative="1" as="geometry">
            <mxPoint x="-3" y="-10" as="offset" />
          </mxGeometry>
        </mxCell>
        <mxCell id="tgN6m3i9DT7jNhMSGEQ1-71" value="" style="endArrow=classic;startArrow=classic;html=1;rounded=0;exitX=0.5;exitY=0;exitDx=0;exitDy=0;fontFamily=Ubuntu;fontSource=https%3A%2F%2Ffonts.googleapis.com%2Fcss%3Ffamily%3DUbuntu;horizontal=1;" parent="1" edge="1">
          <mxGeometry width="50" height="50" relative="1" as="geometry">
            <mxPoint x="430" y="530" as="sourcePoint" />
            <mxPoint x="430" y="400" as="targetPoint" />
          </mxGeometry>
        </mxCell>
        <mxCell id="tgN6m3i9DT7jNhMSGEQ1-72" value="&lt;div style=&quot;font-size: 12px;&quot;&gt;WebTransport&lt;/div&gt;&lt;div style=&quot;font-size: 12px;&quot;&gt;spojení&lt;br&gt;&lt;/div&gt;" style="edgeLabel;html=1;align=center;verticalAlign=middle;resizable=0;points=[];labelBackgroundColor=none;fontStyle=1;horizontal=0;fontFamily=Ubuntu;fontSource=https%3A%2F%2Ffonts.googleapis.com%2Fcss%3Ffamily%3DUbuntu;fontSize=12;" parent="tgN6m3i9DT7jNhMSGEQ1-71" vertex="1" connectable="0">
          <mxGeometry x="-0.1949" y="-2" relative="1" as="geometry">
            <mxPoint x="-3" y="-10" as="offset" />
          </mxGeometry>
        </mxCell>
        <mxCell id="fQWVmCW7hai4RUJR2Vjz-1" value="" style="endArrow=classic;startArrow=classic;html=1;rounded=0;exitX=0.5;exitY=0;exitDx=0;exitDy=0;fontFamily=Ubuntu;fontSource=https%3A%2F%2Ffonts.googleapis.com%2Fcss%3Ffamily%3DUbuntu;horizontal=1;" parent="1" edge="1">
          <mxGeometry width="50" height="50" relative="1" as="geometry">
            <mxPoint x="210" y="530" as="sourcePoint" />
            <mxPoint x="210" y="400" as="targetPoint" />
          </mxGeometry>
        </mxCell>
        <mxCell id="fQWVmCW7hai4RUJR2Vjz-2" value="&lt;div style=&quot;font-size: 12px;&quot;&gt;WebTransport&lt;/div&gt;&lt;div style=&quot;font-size: 12px;&quot;&gt;spojení&lt;br&gt;&lt;/div&gt;" style="edgeLabel;html=1;align=center;verticalAlign=middle;resizable=0;points=[];labelBackgroundColor=none;fontStyle=1;horizontal=0;fontFamily=Ubuntu;fontSource=https%3A%2F%2Ffonts.googleapis.com%2Fcss%3Ffamily%3DUbuntu;fontSize=12;" parent="fQWVmCW7hai4RUJR2Vjz-1" vertex="1" connectable="0">
          <mxGeometry x="-0.1949" y="-2" relative="1" as="geometry">
            <mxPoint x="-3" y="-10" as="offset" />
          </mxGeometry>
        </mxCell>
        <mxCell id="3Eo1DbCFJsM3sWPDbRCF-8" value="&lt;font size=&quot;1&quot; color=&quot;#ff0000&quot;&gt;&lt;b style=&quot;font-size: 23px;&quot;&gt;Moduly&lt;/b&gt;&lt;/font&gt;" style="rounded=1;whiteSpace=wrap;html=1;fillColor=#d5e8d4;strokeColor=#82b366;strokeWidth=3;fontFamily=Ubuntu;fontSource=https%3A%2F%2Ffonts.googleapis.com%2Fcss%3Ffamily%3DUbuntu;verticalAlign=top;fontSize=20;" parent="1" vertex="1">
          <mxGeometry x="50" y="70" width="540" height="110" as="geometry" />
        </mxCell>
        <mxCell id="tgN6m3i9DT7jNhMSGEQ1-54" value="Zprávy" style="rounded=1;whiteSpace=wrap;html=1;fontStyle=1;fontSize=14;fillColor=#e1d5e7;strokeColor=#9673a6;strokeWidth=3;fontFamily=Ubuntu;fontSource=https%3A%2F%2Ffonts.googleapis.com%2Fcss%3Ffamily%3DUbuntu;" parent="1" vertex="1">
          <mxGeometry x="75" y="110" width="90" height="50" as="geometry" />
        </mxCell>
        <mxCell id="tgN6m3i9DT7jNhMSGEQ1-7" value="Novinky" style="rounded=1;whiteSpace=wrap;html=1;fontStyle=1;fontSize=14;fillColor=#e1d5e7;strokeColor=#9673a6;strokeWidth=3;fontFamily=Ubuntu;fontSource=https%3A%2F%2Ffonts.googleapis.com%2Fcss%3Ffamily%3DUbuntu;" parent="1" vertex="1">
          <mxGeometry x="175" y="110" width="90" height="50" as="geometry" />
        </mxCell>
        <mxCell id="tgN6m3i9DT7jNhMSGEQ1-8" value="Diskuze" style="rounded=1;whiteSpace=wrap;html=1;fontStyle=1;fontSize=14;fillColor=#e1d5e7;strokeColor=#9673a6;strokeWidth=3;fontFamily=Ubuntu;fontSource=https%3A%2F%2Ffonts.googleapis.com%2Fcss%3Ffamily%3DUbuntu;" parent="1" vertex="1">
          <mxGeometry x="275" y="110" width="90" height="50" as="geometry" />
        </mxCell>
        <mxCell id="tgN6m3i9DT7jNhMSGEQ1-9" value="&lt;div&gt;Blogy&lt;/div&gt;" style="rounded=1;whiteSpace=wrap;html=1;fontStyle=1;fontSize=14;fillColor=#e1d5e7;strokeColor=#9673a6;strokeWidth=3;fontFamily=Ubuntu;fontSource=https%3A%2F%2Ffonts.googleapis.com%2Fcss%3Ffamily%3DUbuntu;" parent="1" vertex="1">
          <mxGeometry x="375" y="110" width="90" height="50" as="geometry" />
        </mxCell>
        <mxCell id="tgN6m3i9DT7jNhMSGEQ1-52" value="..." style="rounded=1;whiteSpace=wrap;html=1;fontStyle=1;fontSize=14;fillColor=#e1d5e7;strokeColor=#9673a6;strokeWidth=3;fontFamily=Ubuntu;fontSource=https%3A%2F%2Ffonts.googleapis.com%2Fcss%3Ffamily%3DUbuntu;" parent="1" vertex="1">
          <mxGeometry x="475" y="110" width="90" height="50" as="geometry" />
        </mxCell>
        <mxCell id="tgN6m3i9DT7jNhMSGEQ1-67" value="" style="endArrow=classic;startArrow=classic;html=1;rounded=0;fontFamily=Ubuntu;fontSource=https%3A%2F%2Ffonts.googleapis.com%2Fcss%3Ffamily%3DUbuntu;horizontal=1;entryX=0.5;entryY=1;entryDx=0;entryDy=0;" parent="1" edge="1">
          <mxGeometry width="50" height="50" relative="1" as="geometry">
            <mxPoint x="120" y="210" as="sourcePoint" />
            <mxPoint x="120" y="160" as="targetPoint" />
          </mxGeometry>
        </mxCell>
        <mxCell id="3Eo1DbCFJsM3sWPDbRCF-9" value="" style="endArrow=classic;startArrow=classic;html=1;rounded=0;fontFamily=Ubuntu;fontSource=https%3A%2F%2Ffonts.googleapis.com%2Fcss%3Ffamily%3DUbuntu;horizontal=1;entryX=0.5;entryY=1;entryDx=0;entryDy=0;" parent="1" edge="1">
          <mxGeometry width="50" height="50" relative="1" as="geometry">
            <mxPoint x="219.82999999999998" y="210" as="sourcePoint" />
            <mxPoint x="219.82999999999998" y="160" as="targetPoint" />
          </mxGeometry>
        </mxCell>
        <mxCell id="3Eo1DbCFJsM3sWPDbRCF-10" value="" style="endArrow=classic;startArrow=classic;html=1;rounded=0;fontFamily=Ubuntu;fontSource=https%3A%2F%2Ffonts.googleapis.com%2Fcss%3Ffamily%3DUbuntu;horizontal=1;entryX=0.5;entryY=1;entryDx=0;entryDy=0;" parent="1" edge="1">
          <mxGeometry width="50" height="50" relative="1" as="geometry">
            <mxPoint x="319.83" y="210" as="sourcePoint" />
            <mxPoint x="319.83" y="160" as="targetPoint" />
          </mxGeometry>
        </mxCell>
        <mxCell id="3Eo1DbCFJsM3sWPDbRCF-11" value="" style="endArrow=classic;startArrow=classic;html=1;rounded=0;fontFamily=Ubuntu;fontSource=https%3A%2F%2Ffonts.googleapis.com%2Fcss%3Ffamily%3DUbuntu;horizontal=1;entryX=0.5;entryY=1;entryDx=0;entryDy=0;" parent="1" edge="1">
          <mxGeometry width="50" height="50" relative="1" as="geometry">
            <mxPoint x="419.83" y="210" as="sourcePoint" />
            <mxPoint x="419.83" y="160" as="targetPoint" />
          </mxGeometry>
        </mxCell>
        <mxCell id="3Eo1DbCFJsM3sWPDbRCF-12" value="" style="endArrow=classic;startArrow=classic;html=1;rounded=0;fontFamily=Ubuntu;fontSource=https%3A%2F%2Ffonts.googleapis.com%2Fcss%3Ffamily%3DUbuntu;horizontal=1;entryX=0.5;entryY=1;entryDx=0;entryDy=0;" parent="1" edge="1">
          <mxGeometry width="50" height="50" relative="1" as="geometry">
            <mxPoint x="519.8299999999999" y="210" as="sourcePoint" />
            <mxPoint x="519.8299999999999" y="160" as="targetPoint" />
          </mxGeometry>
        </mxCell>
      </root>
    </mxGraphModel>
  </diagram>
</mxfile>
